<svg width="24" height="35" viewBox="0 0 24 35" fill="none" xmlns="http://www.w3.org/2000/svg">
<path d="M3.875 30.3906L3.07882 30.9957L3.08271 31.0008L3.875 30.3906ZM3.92188 4.96094L3.10728 4.38091L3.10669 4.38173L3.92188 4.96094ZM19.625 2.33594L19.0164 3.12943L19.0201 3.13225L19.625 2.33594ZM23.0703 8.07812L23.2086 9.06852L24.3197 8.91339L24.0384 7.82737L23.0703 8.07812ZM16.8594 8.94531L15.893 9.20254L16.1208 10.0581L16.9977 9.93571L16.8594 8.94531ZM8.70312 8.33594L7.83628 7.83731L7.83299 7.84312L8.70312 8.33594ZM7.20312 16.375H6.20312V19.9853L8.06062 16.8895L7.20312 16.375ZM16.0391 19.0938L15.2806 19.7455L15.2861 19.7519L15.2917 19.7581L16.0391 19.0938ZM8.98438 19L9.70971 19.6885L9.71543 19.6823L8.98438 19ZM8.28125 26.1016L7.3547 26.478L7.35989 26.4903L8.28125 26.1016ZM16.1094 27.7656L16.8937 28.386L16.8981 28.3804L16.1094 27.7656ZM22.9609 23.1953C22.9609 26.5183 22.036 28.9988 20.2952 30.7672L21.7205 32.1703C23.9172 29.9387 24.9609 26.9036 24.9609 23.1953H22.9609ZM20.2952 30.7672C18.5568 32.5332 16.1196 33.4688 12.8516 33.4688V35.4688C16.521 35.4688 19.5213 34.4043 21.7205 32.1703L20.2952 30.7672ZM12.8516 33.4688C9.22395 33.4688 6.54464 32.2182 4.66729 29.7805L3.08271 31.0008C5.39286 34.0005 8.69792 35.4688 12.8516 35.4688V33.4688ZM4.67116 29.7855C2.78104 27.2985 1.75781 23.5056 1.75781 18.25H-0.242188C-0.242188 23.7131 0.812708 28.014 3.07884 30.9957L4.67116 29.7855ZM1.75781 18.25C1.75781 12.4495 2.80159 8.26413 4.73706 5.54014L3.10669 4.38173C0.82341 7.59524 -0.242188 12.2692 -0.242188 18.25H1.75781ZM4.73647 5.54096C6.65798 2.84238 9.37324 1.48438 13.0156 1.48438V-0.515625C8.78301 -0.515625 5.43577 1.11075 3.10728 4.38091L4.73647 5.54096ZM13.0156 1.48438C15.6745 1.48438 17.6372 2.07154 19.0164 3.12942L20.2336 1.54246C18.3941 0.13158 15.9505 -0.515625 13.0156 -0.515625V1.48438ZM19.0201 3.13225C20.4171 4.19341 21.469 5.88424 22.1023 8.32888L24.0384 7.82737C23.3279 5.08451 22.0829 2.94721 20.2299 1.53963L19.0201 3.13225ZM22.932 7.08773L16.7211 7.95492L16.9977 9.93571L23.2086 9.06852L22.932 7.08773ZM17.8257 8.68808C17.4993 7.46172 16.9333 6.43963 16.0627 5.72779C15.1844 5.0097 14.0942 4.6875 12.875 4.6875V6.6875C13.7339 6.6875 14.3468 6.90827 14.7967 7.27611C15.2542 7.65021 15.6413 8.25703 15.893 9.20254L17.8257 8.68808ZM12.875 4.6875C10.6903 4.6875 8.99756 5.81853 7.8363 7.83732L9.56995 8.83455C10.4399 7.3221 11.5285 6.6875 12.875 6.6875V4.6875ZM7.83299 7.84312C6.70508 9.83459 6.20312 12.7234 6.20312 16.375H8.20312C8.20312 12.8391 8.70117 10.3685 9.57326 8.82876L7.83299 7.84312ZM8.06062 16.8895C8.66358 15.8846 9.49606 15.1161 10.58 14.5741L9.6856 12.7853C8.26956 13.4933 7.14892 14.5217 6.34563 15.8605L8.06062 16.8895ZM10.58 14.5741C11.6742 14.0271 12.9319 13.7422 14.375 13.7422V11.7422C12.6618 11.7422 11.0915 12.0823 9.6856 12.7853L10.58 14.5741ZM14.375 13.7422C17.0973 13.7422 19.1474 14.5959 20.6457 16.2304L22.12 14.879C20.1808 12.7635 17.5589 11.7422 14.375 11.7422V13.7422ZM20.6457 16.2304C22.1539 17.8758 22.9609 20.1578 22.9609 23.1953H24.9609C24.9609 19.7953 24.0492 16.9836 22.12 14.879L20.6457 16.2304ZM18.3516 23.3828C18.3516 21.3657 17.8815 19.6613 16.7865 18.4294L15.2917 19.7581C15.9466 20.4949 16.3516 21.6499 16.3516 23.3828H18.3516ZM16.7975 18.442C15.7187 17.1866 14.2352 16.5938 12.4766 16.5938V18.5938C13.7492 18.5938 14.6407 19.0009 15.2806 19.7455L16.7975 18.442ZM12.4766 16.5938C10.7869 16.5938 9.3435 17.1496 8.25332 18.3177L9.71543 19.6823C10.3752 18.9754 11.26 18.5938 12.4766 18.5938V16.5938ZM8.25907 18.3116C7.1728 19.456 6.67188 20.9479 6.67188 22.6797H8.67188C8.67188 21.349 9.04595 20.3877 9.70968 19.6884L8.25907 18.3116ZM6.67188 22.6797C6.67188 24.0663 6.89179 25.3383 7.35478 26.4779L9.20772 25.7252C8.85821 24.8649 8.67188 23.8556 8.67188 22.6797H6.67188ZM7.35989 26.4903C7.83891 27.6257 8.52296 28.5627 9.42855 29.2608L10.6496 27.6767C10.0552 27.2186 9.56734 26.5774 9.20261 25.7129L7.35989 26.4903ZM9.42855 29.2608C10.3608 29.9794 11.4447 30.3359 12.6406 30.3359V28.3359C11.8678 28.3359 11.2173 28.1144 10.6496 27.6767L9.42855 29.2608ZM12.6406 30.3359C14.3917 30.3359 15.8529 29.7017 16.8937 28.386L15.3251 27.1452C14.7096 27.9233 13.8583 28.3359 12.6406 28.3359V30.3359ZM16.8981 28.3804C17.9069 27.0861 18.3516 25.3814 18.3516 23.3828H16.3516C16.3516 25.1029 15.9681 26.3201 15.3206 27.1509L16.8981 28.3804Z" fill="#60606C"/>
</svg>
