<svg width="25" height="35" viewBox="0 0 25 35" fill="none" xmlns="http://www.w3.org/2000/svg">
<path d="M21.0781 31.375L21.7667 32.1001L21.7669 32.1L21.0781 31.375ZM4.15625 32.2422L3.55322 33.04L3.56027 33.0452L4.15625 32.2422ZM0.476562 25.75L0.394985 24.7533L-0.687587 24.8419L-0.509978 25.9135L0.476562 25.75ZM7.0625 25.2109L8.0339 24.9735L7.8313 24.1447L6.98092 24.2143L7.0625 25.2109ZM16.1094 27.6719L15.3808 26.9868L15.3754 26.9927L16.1094 27.6719ZM16.2031 19L15.4526 19.6609L15.4576 19.6665L16.2031 19ZM9.85156 17.9688L10.2682 18.8778L10.276 18.8743L10.2837 18.8706L9.85156 17.9688ZM7.85938 19.5625V20.5625H8.33837L8.63859 20.1893L7.85938 19.5625ZM1.4375 19.5625L0.439404 19.5008L0.373802 20.5625H1.4375V19.5625ZM2.58594 0.976562V-0.0234375H1.64582L1.58784 0.914889L2.58594 0.976562ZM22.4375 0.976562H23.4375V-0.0234375H22.4375V0.976562ZM22.4375 5.875V6.875H23.4375V5.875H22.4375ZM8.5625 5.875V4.875H7.62502L7.56458 5.81053L8.5625 5.875ZM8.02344 14.2188L7.02552 14.1543L6.8694 16.5706L8.68506 14.9686L8.02344 14.2188ZM19.4609 13.4453L18.9619 14.312L18.9723 14.3178L19.4609 13.4453ZM23.0703 17.1953L22.1828 17.6561L22.1863 17.6628L23.0703 17.1953ZM23.3594 23.0078C23.3594 26.2815 22.3459 28.7913 20.3894 30.65L21.7669 32.1C24.1853 29.8025 25.3594 26.7341 25.3594 23.0078H23.3594ZM20.3895 30.6499C18.4496 32.4921 15.7371 33.4688 12.125 33.4688V35.4688C16.1066 35.4688 19.3629 34.3829 21.7667 32.1001L20.3895 30.6499ZM12.125 33.4688C8.95684 33.4688 6.53086 32.7593 4.75223 31.4392L3.56027 33.0452C5.78164 34.6939 8.66816 35.4688 12.125 35.4688V33.4688ZM4.75926 31.4445C3.01045 30.1225 1.89683 28.2033 1.4631 25.5865L-0.509978 25.9135C-0.00620473 28.9529 1.3333 31.3619 3.55324 33.0399L4.75926 31.4445ZM0.55814 26.7467L7.14408 26.2076L6.98092 24.2143L0.394985 24.7533L0.55814 26.7467ZM6.0911 25.4484C6.4719 27.0062 7.17943 28.2678 8.29989 29.0881L9.48136 27.4744C8.85182 27.0135 8.3406 26.2282 8.0339 24.9735L6.0911 25.4484ZM8.29989 29.0881C9.38176 29.8802 10.7034 30.2422 12.1953 30.2422V28.2422C11.031 28.2422 10.1495 27.9636 9.48136 27.4744L8.29989 29.0881ZM12.1953 30.2422C14.0686 30.2422 15.6562 29.6339 16.8433 28.3511L15.3754 26.9927C14.625 27.8036 13.6032 28.2422 12.1953 28.2422V30.2422ZM16.8379 28.3569C18.0526 27.0651 18.5859 25.2763 18.5859 23.1484H16.5859C16.5859 24.9581 16.1349 26.1849 15.3809 26.9868L16.8379 28.3569ZM18.5859 23.1484C18.5859 21.2329 18.073 19.5912 16.9487 18.3335L15.4576 19.6665C16.177 20.4713 16.5859 21.5952 16.5859 23.1484H18.5859ZM16.9536 18.3391C15.8061 17.036 14.2204 16.4297 12.3359 16.4297V18.4297C13.7639 18.4297 14.7564 18.8702 15.4526 19.6609L16.9536 18.3391ZM12.3359 16.4297C11.2937 16.4297 10.3161 16.6373 9.41944 17.0669L10.2837 18.8706C10.887 18.5815 11.5656 18.4297 12.3359 18.4297V16.4297ZM9.43491 17.0597C8.52785 17.4754 7.74398 18.1105 7.08016 18.9357L8.63859 20.1893C9.13102 19.577 9.67527 19.1496 10.2682 18.8778L9.43491 17.0597ZM7.85938 18.5625H1.4375V20.5625H7.85938V18.5625ZM2.4356 19.6242L3.58403 1.03824L1.58784 0.914889L0.439404 19.5008L2.4356 19.6242ZM2.58594 1.97656H22.4375V-0.0234375H2.58594V1.97656ZM21.4375 0.976562V5.875H23.4375V0.976562H21.4375ZM22.4375 4.875H8.5625V6.875H22.4375V4.875ZM7.56458 5.81053L7.02552 14.1543L9.02136 14.2832L9.56042 5.93947L7.56458 5.81053ZM8.68506 14.9686C10.0731 13.7439 11.8205 13.1094 14 13.1094V11.1094C11.3983 11.1094 9.16129 11.8811 7.36182 13.4689L8.68506 14.9686ZM14 13.1094C15.9492 13.1094 17.5913 13.5228 18.962 14.3119L19.9599 12.5787C18.2368 11.5866 16.2383 11.1094 14 11.1094V13.1094ZM18.9723 14.3178C20.3605 15.0952 21.4269 16.2002 22.1828 17.6561L23.9578 16.7345C23.0263 14.9404 21.6863 13.5454 19.9495 12.5728L18.9723 14.3178ZM22.1863 17.6628C22.9543 19.1149 23.3594 20.8847 23.3594 23.0078H25.3594C25.3594 20.6309 24.9051 18.5257 23.9543 16.7278L22.1863 17.6628Z" fill="#60606C"/>
</svg>
