<svg width="27" height="34" viewBox="0 0 27 34" fill="none" xmlns="http://www.w3.org/2000/svg">
<path d="M22.0312 27.2734V26.2734H21.0312V27.2734H22.0312ZM22.0312 34V35H23.0312V34H22.0312ZM15.75 34H14.75V35H15.75V34ZM15.75 27.2734H16.75V26.2734H15.75V27.2734ZM0.726562 27.2734H-0.273438V28.2734H0.726562V27.2734ZM0.726562 22.3281L-0.110682 21.7813L-0.273438 22.0305V22.3281H0.726562ZM14.6719 0.976562V-0.0234375H14.1306L13.8346 0.429734L14.6719 0.976562ZM22.0312 0.976562H23.0312V-0.0234375H22.0312V0.976562ZM22.0312 22.375H21.0312V23.375H22.0312V22.375ZM26.4375 22.375H27.4375V21.375H26.4375V22.375ZM26.4375 27.2734V28.2734H27.4375V27.2734H26.4375ZM6.09375 22.375L5.25835 21.8254L4.23877 23.375H6.09375V22.375ZM15.75 22.375V23.375H16.75V22.375H15.75ZM15.8203 8.82812L14.8223 8.76476L14.8218 8.77266L14.8214 8.78056L15.8203 8.82812ZM15.9609 6.92969L16.9548 7.04012L15.0539 6.50858L15.9609 6.92969ZM15.0938 8.54688L14.2307 8.04168L14.2268 8.0484L15.0938 8.54688ZM13.7578 10.7266L14.5933 11.2762L14.5995 11.2665L13.7578 10.7266ZM21.0312 27.2734V34H23.0312V27.2734H21.0312ZM22.0312 33H15.75V35H22.0312V33ZM16.75 34V27.2734H14.75V34H16.75ZM15.75 26.2734H0.726562V28.2734H15.75V26.2734ZM1.72656 27.2734V22.3281H-0.273438V27.2734H1.72656ZM1.56381 22.875L15.5091 1.52339L13.8346 0.429734L-0.110682 21.7813L1.56381 22.875ZM14.6719 1.97656H22.0312V-0.0234375H14.6719V1.97656ZM21.0312 0.976562V22.375H23.0312V0.976562H21.0312ZM22.0312 23.375H26.4375V21.375H22.0312V23.375ZM25.4375 22.375V27.2734H27.4375V22.375H25.4375ZM26.4375 26.2734H22.0312V28.2734H26.4375V26.2734ZM6.09375 23.375H15.75V21.375H6.09375V23.375ZM16.75 22.375V11.5703H14.75V22.375H16.75ZM16.75 11.5703C16.75 10.7448 16.7729 9.84677 16.8192 8.87569L14.8214 8.78056C14.7739 9.77823 14.75 10.7083 14.75 11.5703H16.75ZM16.8183 8.89149C16.8812 7.90058 16.9267 7.29317 16.9548 7.04012L14.9671 6.81926C14.9327 7.12871 14.8844 7.78692 14.8223 8.76476L16.8183 8.89149ZM15.0539 6.50858C14.8692 6.90646 14.5973 7.41554 14.2307 8.0417L15.9568 9.05205C16.3402 8.39696 16.6464 7.82791 16.8679 7.3508L15.0539 6.50858ZM14.2268 8.0484C13.8778 8.65538 13.4415 9.36758 12.9161 10.1866L14.5995 11.2665C15.1366 10.4293 15.5909 9.68837 15.9607 9.04535L14.2268 8.0484ZM12.9224 10.1769L5.25835 21.8254L6.92915 22.9246L14.5932 11.2762L12.9224 10.1769Z" fill="#60606C"/>
</svg>
