<svg width="24" height="34" viewBox="0 0 24 34" fill="none" xmlns="http://www.w3.org/2000/svg">
<path d="M23.7734 28.5859H24.7734V27.5859H23.7734V28.5859ZM23.7734 34V35H24.7734V34H23.7734ZM0.664062 34H-0.335938V35H0.664062V34ZM0.664062 29.4297L-0.245533 29.0142L-0.335938 29.2121V29.4297H0.664062ZM2.86719 25.7266L3.67094 26.3216L3.67458 26.3166L2.86719 25.7266ZM6.05469 22.0703L6.75728 22.7819L6.75733 22.7819L6.05469 22.0703ZM10.3203 18.2734L9.69051 17.4967L9.68915 17.4978L10.3203 18.2734ZM13.2734 15.7188L13.9593 16.4466L13.9665 16.4396L13.2734 15.7188ZM15.1719 13.6328L14.3793 13.0231L14.3743 13.0296L14.3694 13.0361L15.1719 13.6328ZM16.2266 11.8281L17.1568 12.1953L17.1599 12.1871L16.2266 11.8281ZM15.4766 6.8125L14.7694 7.51965L14.7771 7.52717L15.4766 6.8125ZM9.00781 6.88281L8.29345 6.18303L8.2933 6.18319L9.00781 6.88281ZM7.57812 10.2812L7.52168 11.2797L8.43692 11.3314L8.56787 10.4241L7.57812 10.2812ZM0.945312 9.90625L-0.0472739 9.78471L-0.177031 10.8444L0.888866 10.9047L0.945312 9.90625ZM4.36719 2.89844L3.72516 2.13174L3.72209 2.13434L4.36719 2.89844ZM19.6016 17.8516L18.8794 17.1599L18.8721 17.1675L18.8649 17.1753L19.6016 17.8516ZM16.625 20.5703L16.0126 19.7797L16.0072 19.784L16.625 20.5703ZM13.4375 23.0781L12.8186 22.2926L12.8128 22.2973L13.4375 23.0781ZM10.4375 25.7266L9.73654 25.0133L9.73039 25.0195L10.4375 25.7266ZM8.44531 28.5859L7.5269 28.1903L6.92571 29.5859H8.44531V28.5859ZM22.7734 28.5859V34H24.7734V28.5859H22.7734ZM23.7734 33H0.664062V35H23.7734V33ZM1.66406 34V29.4297H-0.335938V34H1.66406ZM1.57366 29.8452C2.12075 28.6475 2.81864 27.4729 3.67093 26.3215L2.06345 25.1316C1.13449 26.3865 0.363622 27.6806 -0.245533 29.0142L1.57366 29.8452ZM3.67458 26.3166C4.52933 25.1469 5.55553 23.9684 6.75728 22.7819L5.3521 21.3587C4.08509 22.6097 2.9863 23.8687 2.0598 25.1365L3.67458 26.3166ZM6.75733 22.7819C7.98112 21.5734 9.37852 20.329 10.9515 19.0491L9.68915 17.4978C8.0746 18.8116 6.62826 20.0985 5.35204 21.3588L6.75733 22.7819ZM10.9501 19.0502C12.1197 18.1019 13.1239 17.2337 13.9592 16.4465L12.5876 14.991C11.798 15.7351 10.8334 16.57 9.69051 17.4967L10.9501 19.0502ZM13.9665 16.4396C14.8017 15.6365 15.4766 14.8989 15.9743 14.2295L14.3694 13.0361C13.9609 13.5855 13.3701 14.2385 12.5803 14.9979L13.9665 16.4396ZM15.9645 14.2425C16.479 13.5737 16.8819 12.8915 17.1567 12.1953L15.2964 11.461C15.1025 11.9522 14.8023 12.4732 14.3793 13.0231L15.9645 14.2425ZM17.1599 12.1871C17.4327 11.4779 17.5781 10.7626 17.5781 10.0469H15.5781C15.5781 10.4874 15.4892 10.9596 15.2932 11.4691L17.1599 12.1871ZM17.5781 10.0469C17.5781 8.44971 17.1687 7.06942 16.176 6.09783L14.7771 7.52717C15.2531 7.99308 15.5781 8.76904 15.5781 10.0469H17.5781ZM16.1837 6.10539C15.2112 5.13296 13.8338 4.73438 12.2422 4.73438V6.73438C13.5255 6.73438 14.3044 7.05454 14.7695 7.51961L16.1837 6.10539ZM12.2422 4.73438C10.6546 4.73438 9.285 5.17083 8.29345 6.18303L9.72217 7.58259C10.2306 7.06355 11.0173 6.73438 12.2422 6.73438V4.73438ZM8.2933 6.18319C7.35626 7.14017 6.82412 8.50503 6.58838 10.1384L8.56787 10.4241C8.76963 9.02622 9.19061 8.12546 9.72232 7.58244L8.2933 6.18319ZM7.63457 9.28284L1.00176 8.90784L0.888866 10.9047L7.52168 11.2797L7.63457 9.28284ZM1.9379 10.0278C2.28985 7.15353 3.34176 5.0729 5.01229 3.66254L3.72209 2.13434C1.58012 3.94272 0.350775 6.53397 -0.0472739 9.78471L1.9379 10.0278ZM5.00921 3.66512C6.70101 2.24842 9.05832 1.48438 12.1953 1.48438V-0.515625C8.73855 -0.515625 5.87712 0.329709 3.72517 2.13175L5.00921 3.66512ZM12.1953 1.48438C15.619 1.48438 18.0877 2.26607 19.7497 3.68289L21.0472 2.16086C18.8967 0.327675 15.8966 -0.515625 12.1953 -0.515625V1.48438ZM19.7497 3.68289C21.3937 5.08435 22.2578 7.06501 22.2578 9.76562H24.2578C24.2578 6.59124 23.2156 4.0094 21.0472 2.16086L19.7497 3.68289ZM22.2578 9.76562C22.2578 11.2796 21.9448 12.6016 21.3407 13.7547L23.1124 14.6828C23.8834 13.2109 24.2578 11.5642 24.2578 9.76562H22.2578ZM21.3407 13.7547C20.6984 14.981 19.8793 16.1158 18.8794 17.1599L20.3238 18.5432C21.4488 17.3685 22.3797 16.0815 23.1124 14.6828L21.3407 13.7547ZM18.8649 17.1753C18.0311 18.0836 17.0811 18.952 16.0126 19.7798L17.2374 21.3609C18.3876 20.4698 19.422 19.5258 20.3382 18.5278L18.8649 17.1753ZM16.0072 19.784C14.9131 20.6436 13.8502 21.4798 12.8186 22.2926L14.0564 23.8636C15.0873 23.0514 16.1494 22.2157 17.2428 21.3566L16.0072 19.784ZM12.8128 22.2973C11.6952 23.1914 10.6694 24.0966 9.73657 25.0133L11.1384 26.4398C12.0181 25.5753 12.9923 24.7149 14.0622 23.859L12.8128 22.2973ZM9.73039 25.0195C8.76259 25.9873 8.02095 27.0434 7.5269 28.1903L9.36373 28.9816C9.74467 28.0972 10.3312 27.2471 11.1446 26.4337L9.73039 25.0195ZM8.44531 29.5859H23.7734V27.5859H8.44531V29.5859Z" fill="#60606C"/>
</svg>
