<svg width="23" height="34" viewBox="0 0 23 34" fill="none" xmlns="http://www.w3.org/2000/svg">
<path d="M22.3594 29.1016H23.3594V28.1016H22.3594V29.1016ZM22.3594 34V35H23.3594V34H22.3594ZM0.0234375 34H-0.976562V35H0.0234375V34ZM0.0234375 29.1016V28.1016H-0.976562V29.1016H0.0234375ZM8.20312 29.1016V30.1016H9.20312V29.1016H8.20312ZM8.20312 6.57812H9.20312V4.77501L7.67358 5.72984L8.20312 6.57812ZM0.28125 11.5234H-0.71875V13.3266L0.810798 12.3717L0.28125 11.5234ZM0.28125 6.34375L-0.262986 5.50482L-0.71875 5.80048V6.34375H0.28125ZM8.55469 0.976562V-0.0234375H8.25874L8.01045 0.137631L8.55469 0.976562ZM14.7891 0.976562H15.7891V-0.0234375H14.7891V0.976562ZM14.7891 29.1016H13.7891V30.1016H14.7891V29.1016ZM21.3594 29.1016V34H23.3594V29.1016H21.3594ZM22.3594 33H0.0234375V35H22.3594V33ZM1.02344 34V29.1016H-0.976562V34H1.02344ZM0.0234375 30.1016H8.20312V28.1016H0.0234375V30.1016ZM9.20312 29.1016V6.57812H7.20312V29.1016H9.20312ZM7.67358 5.72984L-0.248298 10.6752L0.810798 12.3717L8.73267 7.42641L7.67358 5.72984ZM1.28125 11.5234V6.34375H-0.71875V11.5234H1.28125ZM0.825486 7.18268L9.09892 1.81549L8.01045 0.137631L-0.262986 5.50482L0.825486 7.18268ZM8.55469 1.97656H14.7891V-0.0234375H8.55469V1.97656ZM13.7891 0.976562V29.1016H15.7891V0.976562H13.7891ZM14.7891 30.1016H22.3594V28.1016H14.7891V30.1016Z" fill="#60606C"/>
</svg>
