<svg width="24" height="35" viewBox="0 0 24 35" fill="none" xmlns="http://www.w3.org/2000/svg">
<path d="M3.78125 32.1016L3.16446 32.8887L3.16813 32.8915L3.78125 32.1016ZM0.101562 25.0234L0.014482 24.0272L-1.01107 24.1169L-0.891691 25.1394L0.101562 25.0234ZM6.80469 24.4375L7.79596 24.3057L7.66992 23.3581L6.71761 23.4413L6.80469 24.4375ZM8.58594 19.8906H7.58594V20.8906H8.58594V19.8906ZM8.58594 14.5703V13.5703H7.58594V14.5703H8.58594ZM15.0078 13.4219L15.6341 14.2015L15.6417 14.1953L15.0078 13.4219ZM15.2891 6.90625L14.5677 7.59878L14.5747 7.60614L14.582 7.61336L15.2891 6.90625ZM8.67969 6.85938L8.01529 6.11193L8.00841 6.11817L8.67969 6.85938ZM7.25 10.0469L7.17901 11.0444L8.15712 11.114L8.24589 10.1374L7.25 10.0469ZM0.664062 9.57812L-0.328711 9.45812L-0.454776 10.501L0.593068 10.5756L0.664062 9.57812ZM20.1875 2.82812L19.5597 3.60657L19.5666 3.61204L20.1875 2.82812ZM21.2891 14.3594L20.5523 13.6832L20.5479 13.688L21.2891 14.3594ZM16.0625 17.0078L15.8742 16.0257L15.0625 16.1814V17.0078H16.0625ZM16.0625 17.1016H15.0625V17.9911L15.946 18.0948L16.0625 17.1016ZM21.8984 19.6094L21.1873 20.3125L21.1954 20.3205L21.8984 19.6094ZM22.9609 24.8359C22.9609 27.6891 22.0373 29.7746 20.275 31.2386L21.5531 32.777C23.8533 30.866 24.9609 28.1703 24.9609 24.8359H22.9609ZM20.275 31.2386C18.4856 32.7252 15.8552 33.5391 12.2422 33.5391V35.5391C16.1292 35.5391 19.28 34.6654 21.5531 32.777L20.275 31.2386ZM12.2422 33.5391C8.84254 33.5391 6.26161 32.7608 4.39437 31.3116L3.16813 32.8915C5.48839 34.6924 8.54808 35.5391 12.2422 35.5391V33.5391ZM4.39803 31.3144C2.54902 29.8656 1.42878 27.7679 1.09482 24.9075L-0.891691 25.1394C-0.506903 28.4352 0.825979 31.0563 3.16447 32.8887L4.39803 31.3144ZM0.188643 26.0196L6.89177 25.4337L6.71761 23.4413L0.014482 24.0272L0.188643 26.0196ZM5.81342 24.5693C6.04552 26.3144 6.67756 27.7579 7.81449 28.757C8.95195 29.7566 10.4626 30.1953 12.2188 30.1953V28.1953C10.7874 28.1953 9.80195 27.841 9.13472 27.2547C8.46697 26.6679 7.98573 25.7325 7.79596 24.3057L5.81342 24.5693ZM12.2188 30.1953C13.9566 30.1953 15.4509 29.7636 16.5645 28.7694L15.2324 27.2775C14.596 27.8457 13.6371 28.1953 12.2188 28.1953V30.1953ZM16.5645 28.7694C17.7223 27.7356 18.2109 26.2214 18.2109 24.4375H16.2109C16.2109 25.8723 15.8246 26.7488 15.2324 27.2775L16.5645 28.7694ZM18.2109 24.4375C18.2109 22.6924 17.5602 21.25 16.2096 20.2568L15.0248 21.8682C15.7992 22.4375 16.2109 23.2451 16.2109 24.4375H18.2109ZM16.2096 20.2568C14.9009 19.2946 13.0736 18.8906 10.8828 18.8906V20.8906C12.8795 20.8906 14.2085 21.2679 15.0248 21.8682L16.2096 20.2568ZM10.8828 18.8906H8.58594V20.8906H10.8828V18.8906ZM9.58594 19.8906V14.5703H7.58594V19.8906H9.58594ZM8.58594 15.5703H10.7422V13.5703H8.58594V15.5703ZM10.7422 15.5703C12.7427 15.5703 14.4293 15.1693 15.6341 14.2015L14.3816 12.6423C13.6801 13.2057 12.5229 13.5703 10.7422 13.5703V15.5703ZM15.6417 14.1953C16.8665 13.1914 17.4375 11.7752 17.4375 10.0938H15.4375C15.4375 11.2873 15.0554 12.0898 14.3739 12.6485L15.6417 14.1953ZM17.4375 10.0938C17.4375 8.54062 16.9944 7.19742 15.9962 6.19914L14.582 7.61336C15.1149 8.14633 15.4375 8.92813 15.4375 10.0938H17.4375ZM16.0104 6.21372C15.0141 5.17586 13.6132 4.73438 11.9844 4.73438V6.73438C13.2618 6.73438 14.064 7.07414 14.5677 7.59878L16.0104 6.21372ZM11.9844 4.73438C10.4326 4.73438 9.07791 5.16745 8.01532 6.11197L9.34405 7.60678C9.96897 7.0513 10.8174 6.73438 11.9844 6.73438V4.73438ZM8.00841 6.11817C6.95294 7.07407 6.39622 8.3931 6.25411 9.95634L8.24589 10.1374C8.35378 8.95065 8.75019 8.14468 9.35097 7.60058L8.00841 6.11817ZM7.32099 9.0494L0.735057 8.58065L0.593068 10.5756L7.17901 11.0444L7.32099 9.0494ZM1.65684 9.69813C1.97292 7.08325 3.03985 5.10691 4.82708 3.6799L3.57917 2.11698C1.33515 3.90871 0.0427044 6.3855 -0.328711 9.45812L1.65684 9.69813ZM4.82708 3.6799C6.62362 2.24545 9.01815 1.48438 12.1016 1.48438V-0.515625C8.68497 -0.515625 5.81388 0.33267 3.57917 2.11698L4.82708 3.6799ZM12.1016 1.48438C15.4137 1.48438 17.8579 2.23406 19.5597 3.60654L20.8153 2.04971C18.6421 0.297186 15.6957 -0.515625 12.1016 -0.515625V1.48438ZM19.5666 3.61204C21.2533 4.94786 22.1172 6.79275 22.1172 9.27344H24.1172C24.1172 6.25413 23.028 3.80214 20.8084 2.04421L19.5666 3.61204ZM22.1172 9.27344C22.1172 11.1243 21.5773 12.5663 20.5523 13.6833L22.0259 15.0355C23.4384 13.4962 24.1172 11.5476 24.1172 9.27344H22.1172ZM20.5479 13.688C19.5285 14.8133 18.0056 15.6169 15.8742 16.0257L16.2508 17.9899C18.6819 17.5237 20.6433 16.5617 22.0302 15.0307L20.5479 13.688ZM15.0625 17.0078V17.1016H17.0625V17.0078H15.0625ZM15.946 18.0948C18.3239 18.3736 20.0319 19.1438 21.1873 20.3124L22.6096 18.9063C21.0462 17.325 18.8636 16.4232 16.179 16.1084L15.946 18.0948ZM21.1954 20.3205C22.3606 21.4725 22.9609 22.949 22.9609 24.8359H24.9609C24.9609 22.4729 24.1863 20.465 22.6015 18.8982L21.1954 20.3205Z" fill="#60606C"/>
</svg>
