<svg width="27" height="40" viewBox="0 0 27 40" fill="none" xmlns="http://www.w3.org/2000/svg">
<path d="M26.5862 33.6427H27.5862V32.6427H26.5862V33.6427ZM26.5862 39.3575V40.3575H27.5862V39.3575H26.5862ZM0.527588 39.3575H-0.472412V40.3575H0.527588V39.3575ZM0.527588 33.6427V32.6427H-0.472412V33.6427H0.527588ZM10.0706 33.6427V34.6427H11.0706V33.6427H10.0706ZM10.0706 7.36536H11.0706V5.56224L9.54101 6.51708L10.0706 7.36536ZM0.828369 13.1349H-0.171631V14.938L1.35792 13.9832L0.828369 13.1349ZM0.828369 7.09192L0.284133 6.25299L-0.171631 6.54865V7.09192H0.828369ZM10.4807 0.8302V-0.1698H10.1848L9.93648 -0.00873177L10.4807 0.8302ZM17.7542 0.8302H18.7542V-0.1698H17.7542V0.8302ZM17.7542 33.6427H16.7542V34.6427H17.7542V33.6427ZM25.5862 33.6427V39.3575H27.5862V33.6427H25.5862ZM26.5862 38.3575H0.527588V40.3575H26.5862V38.3575ZM1.52759 39.3575V33.6427H-0.472412V39.3575H1.52759ZM0.527588 34.6427H10.0706V32.6427H0.527588V34.6427ZM11.0706 33.6427V7.36536H9.07056V33.6427H11.0706ZM9.54101 6.51708L0.298821 12.2866L1.35792 13.9832L10.6001 8.21364L9.54101 6.51708ZM1.82837 13.1349V7.09192H-0.171631V13.1349H1.82837ZM1.37261 7.93085L11.0249 1.66913L9.93648 -0.00873177L0.284133 6.25299L1.37261 7.93085ZM10.4807 1.8302H17.7542V-0.1698H10.4807V1.8302ZM16.7542 0.8302V33.6427H18.7542V0.8302H16.7542ZM17.7542 34.6427H26.5862V32.6427H17.7542V34.6427Z" fill="#6C88C7"/>
</svg>
